<svg height="682pt" viewBox="-21 -22 682.665 682" width="682pt" xmlns="http://www.w3.org/2000/svg">
  <path d="M617.348 372.777c-.207 1.125-.559-1.015 0 0 3.3-17.984 5.035-36.386 5.035-54.785 0-40.797-7.985-80.37-23.766-117.633-15.226-35.988-37.008-68.308-64.777-96.058-27.727-27.754-60.07-49.531-96.043-64.754-37.246-15.762-76.824-23.75-117.617-23.75-19.227 0-38.485 1.805-57.227 5.406-.039.008-.14.02-.14.02C237.098 7.55 208.183.25 178.91.25c-47.789 0-92.719 18.61-126.508 52.41C18.617 86.45 0 131.383 0 179.168c0 30.418 7.828 60.32 22.508 86.738-2.977 17.121-4.551 34.617-4.551 52.086 0 40.805 7.988 80.375 23.77 117.64 15.203 36.005 36.992 68.302 64.738 96.056 27.77 27.75 60.066 49.562 96.078 64.746 37.25 15.793 76.84 23.785 117.633 23.785 17.758 0 35.554-1.621 52.93-4.703a178.73 178.73 0 0088.015 23.191c47.777 0 92.688-18.574 126.48-52.39C621.399 552.546 640 507.604 640 459.82c0-30.52-7.867-60.52-22.652-87.043zM321.383 503.074c-107.363 0-155.399-52.781-155.399-92.344 0-20.285 14.98-34.511 35.625-34.511 45.95 0 34.051 65.972 119.774 65.972 43.887 0 68.117-23.828 68.117-48.21 0-14.668-7.234-30.926-36.133-38.047l-95.492-23.84c-76.91-19.285-90.863-60.864-90.863-99.946 0-81.144 76.402-111.609 148.148-111.609 66.094 0 144.004 36.527 144.004 85.207 0 20.86-18.062 32.988-38.7 32.988-39.21 0-32-54.273-110.984-54.273-39.19 0-60.902 17.75-60.902 43.144 0 25.352 30.957 33.45 57.832 39.57l70.684 15.692c77.426 17.25 97.054 62.453 97.054 105.031.008 65.938-50.609 115.176-152.765 115.176zm0 0"/>
</svg>
